<?xml version="1.0" encoding="utf-8"?>
<!-- Generator: Adobe Illustrator 24.0.1, SVG Export Plug-In . SVG Version: 6.00 Build 0)  -->
<svg version="1.1" id="Слой_1" xmlns="http://www.w3.org/2000/svg" xmlns:xlink="http://www.w3.org/1999/xlink" x="0px" y="0px"
	 viewBox="0 0 109.7 17" style="enable-background:new 0 0 109.7 17;" xml:space="preserve">
<style type="text/css">
	.st0{fill:#81B3D2;}
</style>
<path class="st0" d="M100.7,0l2.1,6.5h6.9l-5.6,4l2.1,6.5l-5.6-4l-5.6,4l2.1-6.5l-5.6-4h6.9L100.7,0z"/>
<path class="st0" d="M77.7,0l2.1,6.5h6.9l-5.6,4l2.1,6.5l-5.6-4l-5.6,4l2.1-6.5l-5.6-4h6.9L77.7,0z"/>
<path class="st0" d="M54.7,0l2.1,6.5h6.9l-5.6,4l2.1,6.5l-5.6-4l-5.6,4l2.1-6.5l-5.6-4h6.9L54.7,0z"/>
<path class="st0" d="M31.6,0l2.1,6.5h6.9l-5.6,4l2.1,6.5l-5.6-4l-5.6,4l2.1-6.5l-5.6-4h6.9L31.6,0z"/>
<path class="st0" d="M9,0l2.1,6.5H18l-5.6,4l2.1,6.5L9,13l-5.6,4l2.1-6.5L0,6.5h6.9L9,0z"/>
</svg>
